<svg width="24" height="24" viewBox="0 0 24 24" fill="none" xmlns="http://www.w3.org/2000/svg">
<path d="M16.1742 8.8453C16.3125 8.8453 16.4508 8.84999 16.5867 8.85702C16.0148 5.84061 12.8766 3.53436 9.08906 3.53436C4.89844 3.53436 1.5 6.36093 1.5 9.84843C1.5 11.7492 2.52187 13.4625 4.12266 14.6203C4.18868 14.6669 4.24253 14.7287 4.27965 14.8005C4.31677 14.8723 4.33607 14.952 4.33594 15.0328C4.33594 15.0891 4.32422 15.1406 4.31016 15.1945C4.18125 15.6703 3.97734 16.432 3.96797 16.4672C3.95156 16.5281 3.92813 16.5891 3.92813 16.6523C3.92813 16.7906 4.04063 16.9055 4.18125 16.9055C4.23516 16.9055 4.27969 16.8844 4.32656 16.8586L5.98828 15.9C6.1125 15.8273 6.24609 15.7828 6.39141 15.7828C6.46641 15.7828 6.54141 15.7945 6.61406 15.8156C7.38984 16.0383 8.22656 16.1625 9.09141 16.1625C9.23203 16.1625 9.37031 16.1601 9.50859 16.1531C9.34219 15.6609 9.25313 15.143 9.25313 14.6062C9.25313 11.4234 12.3516 8.8453 16.1742 8.8453ZM11.6203 6.81796C12.1781 6.81796 12.6328 7.2703 12.6328 7.82811C12.6328 8.38593 12.1805 8.83827 11.6203 8.83827C11.0625 8.83827 10.6078 8.38593 10.6078 7.82811C10.6078 7.2703 11.0625 6.81796 11.6203 6.81796ZM6.56016 8.83827C6.00234 8.83827 5.54766 8.38593 5.54766 7.82811C5.54766 7.2703 6 6.81796 6.56016 6.81796C7.12031 6.81796 7.57266 7.2703 7.57266 7.82811C7.57266 8.38593 7.11797 8.83827 6.56016 8.83827ZM20.3133 18.5789C21.6469 17.6133 22.4977 16.1883 22.4977 14.6016C22.4977 11.6953 19.6664 9.33983 16.1719 9.33983C12.6797 9.33983 9.84609 11.6953 9.84609 14.6016C9.84609 17.5078 12.6773 19.8633 16.1719 19.8633C16.8938 19.8633 17.5922 19.7601 18.2367 19.575C18.2977 19.5562 18.3586 19.5469 18.4219 19.5469C18.5438 19.5469 18.6539 19.5844 18.757 19.643L20.1422 20.4398C20.182 20.4633 20.2195 20.4797 20.2641 20.4797C20.2918 20.4799 20.3194 20.4746 20.3451 20.4642C20.3709 20.4537 20.3943 20.4383 20.4141 20.4187C20.4336 20.399 20.449 20.3756 20.4595 20.3498C20.47 20.3241 20.4752 20.2965 20.475 20.2687C20.475 20.2172 20.4539 20.1656 20.4422 20.1141C20.4352 20.0859 20.2641 19.4508 20.1563 19.0523C20.1445 19.0078 20.1352 18.9633 20.1352 18.9187C20.1375 18.7805 20.2078 18.6562 20.3133 18.5789ZM14.0672 13.7625C13.6008 13.7625 13.2234 13.3851 13.2234 12.9211C13.2234 12.457 13.6008 12.0797 14.0672 12.0797C14.5336 12.0797 14.9109 12.457 14.9109 12.9211C14.9109 13.3851 14.5313 13.7625 14.0672 13.7625ZM18.2836 13.7625C17.8172 13.7625 17.4398 13.3851 17.4398 12.9211C17.4398 12.457 17.8172 12.0797 18.2836 12.0797C18.75 12.0797 19.1273 12.457 19.1273 12.9211C19.1262 13.1443 19.0369 13.358 18.8788 13.5156C18.7208 13.6733 18.5068 13.762 18.2836 13.7625Z" fill="white"/>
</svg>
