<svg width="20" height="18" viewBox="0 0 20 18" fill="none" xmlns="http://www.w3.org/2000/svg">
<path d="M19.2143 6.10714C18.7123 4.91899 17.9846 3.83952 17.0714 2.92857C16.1605 2.01542 15.081 1.28769 13.8929 0.785714C12.6585 0.263393 11.3504 0 10 0C8.64955 0 7.34152 0.263393 6.10714 0.785714C4.91899 1.28769 3.83952 2.01542 2.92857 2.92857C2.01542 3.83952 1.28769 4.91899 0.785714 6.10714C0.263393 7.34152 0 8.64955 0 10C0 12.9621 1.30134 15.7522 3.5692 17.6585L3.60714 17.6897C3.73661 17.7969 3.89955 17.8571 4.06696 17.8571H15.9353C16.1027 17.8571 16.2656 17.7969 16.3951 17.6897L16.433 17.6585C18.6987 15.7522 20 12.9621 20 10C20 8.64955 19.7344 7.34152 19.2143 6.10714ZM15.567 16.1607H4.43304C3.57053 15.383 2.88118 14.4327 2.40972 13.3713C1.93827 12.31 1.69525 11.1613 1.69643 10C1.69643 7.78125 2.56027 5.69643 4.12946 4.12946C5.69866 2.56027 7.78348 1.69643 10 1.69643C12.2188 1.69643 14.3036 2.56027 15.8705 4.12946C17.4397 5.69866 18.3036 7.78348 18.3036 10C18.3036 12.3571 17.3103 14.5871 15.567 16.1607ZM12.4888 6.90848C12.4553 6.87525 12.41 6.85661 12.3627 6.85661C12.3155 6.85661 12.2702 6.87525 12.2366 6.90848L10.3504 8.79464C9.93304 8.68303 9.47098 8.79018 9.14286 9.1183C9.02664 9.2343 8.93443 9.37208 8.87152 9.52376C8.80861 9.67543 8.77623 9.83803 8.77623 10.0022C8.77623 10.1664 8.80861 10.329 8.87152 10.4807C8.93443 10.6324 9.02664 10.7702 9.14286 10.8862C9.25886 11.0024 9.39664 11.0946 9.54831 11.1575C9.69999 11.2204 9.86258 11.2528 10.0268 11.2528C10.191 11.2528 10.3536 11.2204 10.5053 11.1575C10.6569 11.0946 10.7947 11.0024 10.9107 10.8862C11.0662 10.7312 11.178 10.5379 11.2348 10.3259C11.2916 10.1138 11.2915 9.89053 11.2344 9.67857L13.1205 7.79241C13.1897 7.72321 13.1897 7.60937 13.1205 7.54018L12.4888 6.90848ZM9.50893 4.64286H10.4911C10.5893 4.64286 10.6696 4.5625 10.6696 4.46429V2.67857C10.6696 2.58036 10.5893 2.5 10.4911 2.5H9.50893C9.41071 2.5 9.33036 2.58036 9.33036 2.67857V4.46429C9.33036 4.5625 9.41071 4.64286 9.50893 4.64286ZM15.3125 9.50893V10.4911C15.3125 10.5893 15.3929 10.6696 15.4911 10.6696H17.2768C17.375 10.6696 17.4554 10.5893 17.4554 10.4911V9.50893C17.4554 9.41071 17.375 9.33036 17.2768 9.33036H15.4911C15.3929 9.33036 15.3125 9.41071 15.3125 9.50893ZM15.596 5.10714L14.9018 4.41295C14.8682 4.37971 14.8229 4.36107 14.7757 4.36107C14.7284 4.36107 14.6831 4.37971 14.6496 4.41295L13.3862 5.67634C13.3529 5.7099 13.3343 5.75522 13.3343 5.80246C13.3343 5.84969 13.3529 5.89501 13.3862 5.92857L14.0804 6.62277C14.1496 6.69196 14.2634 6.69196 14.3326 6.62277L15.596 5.35938C15.6652 5.29018 15.6652 5.17634 15.596 5.10714ZM5.35938 4.41295C5.32581 4.37971 5.28049 4.36107 5.23326 4.36107C5.18603 4.36107 5.1407 4.37971 5.10714 4.41295L4.41295 5.10714C4.37971 5.1407 4.36107 5.18603 4.36107 5.23326C4.36107 5.28049 4.37971 5.32581 4.41295 5.35938L5.67634 6.62277C5.74554 6.69196 5.85938 6.69196 5.92857 6.62277L6.62277 5.92857C6.69196 5.85938 6.69196 5.74553 6.62277 5.67634L5.35938 4.41295ZM4.41964 9.33036H2.63393C2.53571 9.33036 2.45536 9.41071 2.45536 9.50893V10.4911C2.45536 10.5893 2.53571 10.6696 2.63393 10.6696H4.41964C4.51786 10.6696 4.59821 10.5893 4.59821 10.4911V9.50893C4.59821 9.41071 4.51786 9.33036 4.41964 9.33036Z" fill="white"/>
</svg>
