<svg width="24" height="24" viewBox="0 0 24 24" fill="none" xmlns="http://www.w3.org/2000/svg">
<path d="M21.675 14.6648L20.1398 13.3523C20.2125 12.907 20.25 12.4523 20.25 11.9976C20.25 11.5429 20.2125 11.0883 20.1398 10.6429L21.675 9.33044C21.7908 9.23132 21.8737 9.09929 21.9126 8.95193C21.9515 8.80456 21.9447 8.64883 21.893 8.50544L21.8719 8.44451C21.4492 7.26332 20.8164 6.16834 20.0039 5.21248L19.9617 5.16326C19.8631 5.04736 19.7318 4.96405 19.5849 4.92431C19.4381 4.88456 19.2826 4.89024 19.1391 4.9406L17.2336 5.61794C16.5305 5.04138 15.7453 4.58669 14.8969 4.26794L14.5289 2.27576C14.5011 2.12586 14.4284 1.98795 14.3204 1.88036C14.2124 1.77277 14.0742 1.70059 13.9242 1.67341L13.8609 1.66169C12.6398 1.44138 11.3555 1.44138 10.1344 1.66169L10.0711 1.67341C9.92108 1.70059 9.78289 1.77277 9.67488 1.88036C9.56688 1.98795 9.49416 2.12586 9.4664 2.27576L9.09609 4.27732C8.25442 4.59614 7.47062 5.05058 6.77577 5.62263L4.85624 4.9406C4.71272 4.88984 4.55716 4.88395 4.41022 4.92372C4.26327 4.9635 4.13191 5.04704 4.03359 5.16326L3.9914 5.21248C3.17987 6.16902 2.54712 7.26381 2.12343 8.44451L2.10234 8.50544C1.99687 8.79841 2.08359 9.12654 2.32031 9.33044L3.87421 10.657C3.80156 11.0976 3.7664 11.5476 3.7664 11.9953C3.7664 12.4453 3.80156 12.8953 3.87421 13.3336L2.32031 14.6601C2.20451 14.7593 2.12164 14.8913 2.0827 15.0387C2.04377 15.186 2.05062 15.3418 2.10234 15.4851L2.12343 15.5461C2.54765 16.7273 3.17577 17.8172 3.9914 18.7781L4.03359 18.8273C4.13215 18.9432 4.26352 19.0265 4.41037 19.0663C4.55723 19.106 4.71268 19.1003 4.85624 19.05L6.77577 18.3679C7.47421 18.9422 8.25468 19.3969 9.09609 19.7133L9.4664 21.7148C9.49416 21.8647 9.56688 22.0026 9.67488 22.1102C9.78289 22.2178 9.92108 22.29 10.0711 22.3172L10.1344 22.3289C11.3667 22.5504 12.6286 22.5504 13.8609 22.3289L13.9242 22.3172C14.0742 22.29 14.2124 22.2178 14.3204 22.1102C14.4284 22.0026 14.5011 21.8647 14.5289 21.7148L14.8969 19.7226C15.745 19.4047 16.5345 18.9485 17.2336 18.3726L19.1391 19.05C19.2826 19.1007 19.4381 19.1066 19.5851 19.0669C19.732 19.0271 19.8634 18.9435 19.9617 18.8273L20.0039 18.7781C20.8195 17.8148 21.4476 16.7273 21.8719 15.5461L21.893 15.4851C21.9984 15.1969 21.9117 14.8687 21.675 14.6648ZM18.4758 10.9195C18.5344 11.2734 18.5648 11.6367 18.5648 12C18.5648 12.3633 18.5344 12.7265 18.4758 13.0804L18.3211 14.0203L20.0719 15.5179C19.8065 16.1294 19.4714 16.7082 19.0734 17.2429L16.8984 16.4719L16.1625 17.0765C15.6023 17.5359 14.9789 17.8969 14.3039 18.15L13.4109 18.4851L12.9914 20.7586C12.3295 20.8336 11.6612 20.8336 10.9992 20.7586L10.5797 18.4804L9.69374 18.1406C9.02577 17.8875 8.40468 17.5265 7.84921 17.0695L7.11327 16.4625L4.92421 17.2406C4.52577 16.7039 4.19296 16.125 3.92577 15.5156L5.69531 14.0039L5.54296 13.0664C5.48671 12.7172 5.45624 12.3562 5.45624 12C5.45624 11.6414 5.48437 11.2828 5.54296 10.9336L5.69531 9.99607L3.92577 8.48435C4.19062 7.87263 4.52577 7.29607 4.92421 6.75935L7.11327 7.53748L7.84921 6.93044C8.40468 6.47341 9.02577 6.11248 9.69374 5.85935L10.582 5.52419L11.0016 3.24607C11.6601 3.17107 12.3328 3.17107 12.9937 3.24607L13.4133 5.51951L14.3062 5.85466C14.9789 6.10779 15.6047 6.46873 16.1648 6.9281L16.9008 7.53279L19.0758 6.76169C19.4742 7.29841 19.807 7.87732 20.0742 8.48669L18.3234 9.98435L18.4758 10.9195ZM12 7.6406C9.72187 7.6406 7.87499 9.48748 7.87499 11.7656C7.87499 14.0437 9.72187 15.8906 12 15.8906C14.2781 15.8906 16.125 14.0437 16.125 11.7656C16.125 9.48748 14.2781 7.6406 12 7.6406ZM13.8562 13.6219C13.6128 13.866 13.3234 14.0596 13.0049 14.1916C12.6863 14.3235 12.3448 14.3911 12 14.3906C11.2992 14.3906 10.6406 14.1164 10.1437 13.6219C9.89958 13.3784 9.70596 13.089 9.57403 12.7705C9.4421 12.4519 9.37446 12.1104 9.37499 11.7656C9.37499 11.0648 9.64921 10.4062 10.1437 9.90935C10.6406 9.41248 11.2992 9.1406 12 9.1406C12.7008 9.1406 13.3594 9.41248 13.8562 9.90935C14.1004 10.1528 14.294 10.4422 14.426 10.7607C14.5579 11.0793 14.6255 11.4208 14.625 11.7656C14.625 12.4664 14.3508 13.125 13.8562 13.6219Z" fill="white"/>
</svg>
