<svg width="16" height="20" viewBox="0 0 16 20" fill="none" xmlns="http://www.w3.org/2000/svg">
<path d="M10.6027 15.7969C9.83256 16.4353 8.85712 16.7857 7.85712 16.7857C6.85712 16.7857 5.88167 16.433 5.11158 15.7969C4.50911 15.2974 4.05322 14.6441 3.79238 13.9062H1.60712V18.3929H14.1071V13.9062H11.9218C11.6629 14.6384 11.2076 15.2969 10.6027 15.7969Z" fill="white"/>
<path d="M3.57145 9.75444H12.1429C12.2411 9.75444 12.3215 9.67408 12.3215 9.57587V8.50444C12.3215 8.40622 12.2411 8.32587 12.1429 8.32587H3.57145C3.47324 8.32587 3.39288 8.40622 3.39288 8.50444V9.57587C3.39288 9.67408 3.47324 9.75444 3.57145 9.75444Z" fill="white"/>
<path d="M15 0H0.714286C0.319196 0 0 0.319196 0 0.714286V19.2857C0 19.6808 0.319196 20 0.714286 20H15C15.3951 20 15.7143 19.6808 15.7143 19.2857V0.714286C15.7143 0.319196 15.3951 0 15 0ZM14.1071 18.3929H1.60714V13.9062H3.79241C4.05134 14.6384 4.5067 15.2969 5.11161 15.7969C5.8817 16.433 6.85714 16.7857 7.85714 16.7857C8.85714 16.7857 9.83259 16.4353 10.6027 15.7969C11.2076 15.2969 11.6629 14.6384 11.9219 13.9062H14.1071V18.3929ZM14.1071 12.5H10.7946L10.6786 13.0513C10.4107 14.3862 9.22321 15.3571 7.85714 15.3571C6.49107 15.3571 5.30357 14.3862 5.03348 13.0513L4.91741 12.5H1.60714V1.60714H14.1071V12.5Z" fill="white"/>
<path d="M3.57145 6.18303H12.1429C12.2411 6.18303 12.3215 6.10267 12.3215 6.00446V4.93303C12.3215 4.83481 12.2411 4.75446 12.1429 4.75446H3.57145C3.47324 4.75446 3.39288 4.83481 3.39288 4.93303V6.00446C3.39288 6.10267 3.47324 6.18303 3.57145 6.18303Z" fill="white"/>
</svg>
