<svg width="24" height="24" viewBox="0 0 24 24" fill="none" xmlns="http://www.w3.org/2000/svg">
<circle cx="12" cy="12" r="12" fill="#5874D0"/>
<path d="M18.0908 16.4227C17.7592 15.6372 17.278 14.9238 16.674 14.3221C16.0719 13.7186 15.3585 13.2375 14.5735 12.9053C14.5664 12.9018 14.5594 12.9 14.5524 12.8965C15.6475 12.1055 16.3594 10.817 16.3594 9.36328C16.3594 6.95508 14.4082 5.00391 12 5.00391C9.59181 5.00391 7.64064 6.95508 7.64064 9.36328C7.64064 10.817 8.35255 12.1055 9.44767 12.8982C9.44064 12.9018 9.43361 12.9035 9.42658 12.907C8.63908 13.2393 7.93244 13.7156 7.32599 14.3238C6.72255 14.926 6.24143 15.6393 5.90919 16.4244C5.58281 17.193 5.40678 18.0171 5.39064 18.852C5.39017 18.8707 5.39346 18.8894 5.40032 18.9068C5.40717 18.9243 5.41746 18.9402 5.43056 18.9537C5.44367 18.9671 5.45933 18.9778 5.47662 18.9851C5.49392 18.9923 5.5125 18.9961 5.53126 18.9961H6.58595C6.66329 18.9961 6.72482 18.9346 6.72658 18.859C6.76173 17.502 7.30665 16.2311 8.26994 15.2678C9.26662 14.2711 10.5902 13.7227 12 13.7227C13.4098 13.7227 14.7334 14.2711 15.7301 15.2678C16.6934 16.2311 17.2383 17.502 17.2735 18.859C17.2752 18.9363 17.3367 18.9961 17.4141 18.9961H18.4688C18.4875 18.9961 18.5061 18.9923 18.5234 18.9851C18.5407 18.9778 18.5564 18.9671 18.5695 18.9537C18.5826 18.9402 18.5929 18.9243 18.5997 18.9068C18.6066 18.8894 18.6099 18.8707 18.6094 18.852C18.5918 18.0117 18.4178 17.1943 18.0908 16.4227ZM12 12.3867C11.1932 12.3867 10.4338 12.0721 9.86251 11.5008C9.29122 10.9295 8.97658 10.1701 8.97658 9.36328C8.97658 8.55645 9.29122 7.79707 9.86251 7.22578C10.4338 6.65449 11.1932 6.33984 12 6.33984C12.8069 6.33984 13.5662 6.65449 14.1375 7.22578C14.7088 7.79707 15.0235 8.55645 15.0235 9.36328C15.0235 10.1701 14.7088 10.9295 14.1375 11.5008C13.5662 12.0721 12.8069 12.3867 12 12.3867Z" fill="white"/>
</svg>
