<svg width="174" height="24" viewBox="0 0 174 24" fill="none" xmlns="http://www.w3.org/2000/svg">
<circle cx="12" cy="12" r="12" fill="#5874D0"/>
<path d="M18.0908 16.4227C17.7592 15.6372 17.278 14.9238 16.674 14.3221C16.0719 13.7186 15.3585 13.2375 14.5735 12.9053C14.5664 12.9018 14.5594 12.9 14.5524 12.8965C15.6475 12.1055 16.3594 10.817 16.3594 9.36328C16.3594 6.95508 14.4082 5.00391 12 5.00391C9.59181 5.00391 7.64064 6.95508 7.64064 9.36328C7.64064 10.817 8.35255 12.1055 9.44767 12.8982C9.44064 12.9018 9.43361 12.9035 9.42658 12.907C8.63908 13.2393 7.93244 13.7156 7.32599 14.3238C6.72255 14.926 6.24143 15.6393 5.90919 16.4244C5.58281 17.193 5.40678 18.0171 5.39064 18.852C5.39017 18.8707 5.39346 18.8894 5.40032 18.9068C5.40717 18.9243 5.41746 18.9402 5.43056 18.9537C5.44367 18.9671 5.45933 18.9778 5.47662 18.9851C5.49392 18.9923 5.5125 18.9961 5.53126 18.9961H6.58595C6.66329 18.9961 6.72482 18.9346 6.72658 18.859C6.76173 17.502 7.30665 16.2311 8.26994 15.2678C9.26662 14.2711 10.5902 13.7227 12 13.7227C13.4098 13.7227 14.7334 14.2711 15.7301 15.2678C16.6934 16.2311 17.2383 17.502 17.2735 18.859C17.2752 18.9363 17.3367 18.9961 17.4141 18.9961H18.4688C18.4875 18.9961 18.5061 18.9923 18.5234 18.9851C18.5407 18.9778 18.5564 18.9671 18.5695 18.9537C18.5826 18.9402 18.5929 18.9243 18.5997 18.9068C18.6066 18.8894 18.6099 18.8707 18.6094 18.852C18.5918 18.0117 18.4178 17.1943 18.0908 16.4227ZM12 12.3867C11.1932 12.3867 10.4338 12.0721 9.86251 11.5008C9.29122 10.9295 8.97658 10.1701 8.97658 9.36328C8.97658 8.55645 9.29122 7.79707 9.86251 7.22578C10.4338 6.65449 11.1932 6.33984 12 6.33984C12.8069 6.33984 13.5662 6.65449 14.1375 7.22578C14.7088 7.79707 15.0235 8.55645 15.0235 9.36328C15.0235 10.1701 14.7088 10.9295 14.1375 11.5008C13.5662 12.0721 12.8069 12.3867 12 12.3867Z" fill="white"/>
<path d="M165 16C164.825 16.0003 164.655 15.9393 164.52 15.8275L160.02 12.0775C159.867 11.9502 159.771 11.7672 159.752 11.5689C159.734 11.3706 159.795 11.1731 159.923 11.02C160.05 10.8668 160.233 10.7705 160.431 10.7522C160.629 10.7339 160.827 10.7952 160.98 10.9225L165 14.2825L169.02 11.0425C169.097 10.9802 169.185 10.9336 169.28 10.9056C169.375 10.8775 169.474 10.8684 169.572 10.8789C169.67 10.8893 169.766 10.9191 169.852 10.9665C169.939 11.0139 170.016 11.0779 170.078 11.155C170.146 11.2321 170.198 11.3225 170.23 11.4207C170.262 11.5189 170.274 11.6226 170.264 11.7254C170.254 11.8282 170.223 11.9278 170.173 12.0181C170.123 12.1084 170.055 12.1873 169.973 12.25L165.473 15.8725C165.334 15.9666 165.167 16.0115 165 16Z" fill="#5E6A86"/>
<path d="M40.161 15.752C40.0743 15.544 39.9573 15.2797 39.81 14.959C39.6713 14.6383 39.5197 14.2917 39.355 13.919C39.1903 13.5463 39.0127 13.165 38.822 12.775C38.64 12.3763 38.4667 12.0037 38.302 11.657C38.1373 11.3017 37.9813 10.9853 37.834 10.708C37.6953 10.4307 37.5827 10.2183 37.496 10.071C37.4007 11.0937 37.3227 12.203 37.262 13.399C37.2013 14.5863 37.1493 15.7867 37.106 17H35.871C35.9057 16.22 35.9447 15.4357 35.988 14.647C36.0313 13.8497 36.079 13.0697 36.131 12.307C36.1917 11.5357 36.2523 10.786 36.313 10.058C36.3823 9.33 36.456 8.641 36.534 7.991H37.639C37.873 8.37233 38.1243 8.823 38.393 9.343C38.6617 9.863 38.9303 10.409 39.199 10.981C39.4677 11.5443 39.7277 12.112 39.979 12.684C40.2303 13.2473 40.46 13.763 40.668 14.231C40.876 13.763 41.1057 13.2473 41.357 12.684C41.6083 12.112 41.8683 11.5443 42.137 10.981C42.4057 10.409 42.6743 9.863 42.943 9.343C43.2117 8.823 43.463 8.37233 43.697 7.991H44.802C45.0967 10.8943 45.3177 13.8973 45.465 17H44.23C44.1867 15.7867 44.1347 14.5863 44.074 13.399C44.0133 12.203 43.9353 11.0937 43.84 10.071C43.7533 10.2183 43.6363 10.4307 43.489 10.708C43.3503 10.9853 43.1987 11.3017 43.034 11.657C42.8693 12.0037 42.6917 12.3763 42.501 12.775C42.319 13.165 42.1457 13.5463 41.981 13.919C41.8163 14.2917 41.6603 14.6383 41.513 14.959C41.3743 15.2797 41.2617 15.544 41.175 15.752H40.161ZM49.8472 13.659C49.6132 13.659 49.3836 13.6677 49.1582 13.685C48.9416 13.6937 48.7466 13.7197 48.5732 13.763V16.09C48.6252 16.0987 48.6989 16.1073 48.7942 16.116C48.8982 16.1247 49.0066 16.1333 49.1192 16.142C49.2406 16.142 49.3619 16.1463 49.4832 16.155C49.6046 16.155 49.7129 16.155 49.8082 16.155C50.3369 16.155 50.7442 16.0553 51.0302 15.856C51.3162 15.6567 51.4592 15.336 51.4592 14.894C51.4592 14.6773 51.4116 14.491 51.3162 14.335C51.2296 14.179 51.1082 14.0533 50.9522 13.958C50.8049 13.854 50.6359 13.7803 50.4452 13.737C50.2546 13.685 50.0552 13.659 49.8472 13.659ZM47.3642 10.24H48.5732V12.827C48.7206 12.7923 48.9329 12.7577 49.2102 12.723C49.4962 12.6883 49.7692 12.671 50.0292 12.671C50.3846 12.671 50.7226 12.7143 51.0432 12.801C51.3639 12.879 51.6456 13.009 51.8882 13.191C52.1309 13.3643 52.3216 13.594 52.4602 13.88C52.6076 14.1573 52.6812 14.491 52.6812 14.881C52.6812 15.2883 52.6119 15.635 52.4732 15.921C52.3346 16.207 52.1396 16.441 51.8882 16.623C51.6369 16.805 51.3336 16.935 50.9782 17.013C50.6229 17.0997 50.2329 17.143 49.8082 17.143C49.4009 17.143 48.9892 17.117 48.5732 17.065C48.1572 17.0217 47.7542 16.9523 47.3642 16.857V10.24ZM55.1382 17H53.9292V10.24H55.1382V17ZM61.9088 13.633C61.9088 12.8443 61.7138 12.2377 61.3238 11.813C60.9338 11.3883 60.4138 11.176 59.7638 11.176C59.3998 11.176 59.1138 11.189 58.9058 11.215C58.7064 11.241 58.5461 11.2713 58.4248 11.306V15.57C58.5721 15.6913 58.7844 15.8083 59.0618 15.921C59.3391 16.0337 59.6424 16.09 59.9718 16.09C60.3184 16.09 60.6131 16.0293 60.8558 15.908C61.1071 15.778 61.3108 15.6047 61.4668 15.388C61.6228 15.1627 61.7354 14.9027 61.8048 14.608C61.8741 14.3047 61.9088 13.9797 61.9088 13.633ZM63.1698 13.633C63.1698 14.1443 63.1004 14.6167 62.9618 15.05C62.8318 15.4833 62.6368 15.856 62.3768 16.168C62.1168 16.48 61.7961 16.7227 61.4148 16.896C61.0421 17.0693 60.6131 17.156 60.1278 17.156C59.7378 17.156 59.3911 17.104 59.0878 17C58.7931 16.896 58.5721 16.7963 58.4248 16.701V19.405H57.2158V10.448C57.5018 10.3787 57.8571 10.305 58.2818 10.227C58.7151 10.1403 59.2134 10.097 59.7768 10.097C60.2968 10.097 60.7648 10.1793 61.1808 10.344C61.5968 10.5087 61.9521 10.7427 62.2468 11.046C62.5414 11.3493 62.7668 11.722 62.9228 12.164C63.0874 12.5973 63.1698 13.087 63.1698 13.633ZM66.3966 10.071C66.7866 10.071 67.1506 10.11 67.4886 10.188C67.8266 10.266 68.117 10.383 68.3596 10.539C68.6023 10.695 68.793 10.89 68.9316 11.124C69.0703 11.358 69.1396 11.631 69.1396 11.943C69.1396 12.1423 69.105 12.3243 69.0356 12.489C68.9663 12.6537 68.8796 12.801 68.7756 12.931C68.6716 13.061 68.5546 13.1737 68.4246 13.269C68.3033 13.3557 68.1863 13.4163 68.0736 13.451C68.4723 13.5723 68.7843 13.789 69.0096 14.101C69.2436 14.4043 69.3606 14.79 69.3606 15.258C69.3606 15.8993 69.1006 16.376 68.5806 16.688C68.0606 17 67.3543 17.156 66.4616 17.156C65.9156 17.156 65.4433 17.1127 65.0446 17.026C64.6546 16.9393 64.3773 16.857 64.2126 16.779L64.4206 15.752C64.5593 15.804 64.8063 15.8777 65.1616 15.973C65.5256 16.0597 65.959 16.103 66.4616 16.103C67.0076 16.103 67.4236 16.0207 67.7096 15.856C67.9956 15.6827 68.1386 15.427 68.1386 15.089C68.1386 14.8463 68.0823 14.6513 67.9696 14.504C67.8656 14.348 67.7313 14.231 67.5666 14.153C67.402 14.075 67.2243 14.023 67.0336 13.997C66.843 13.971 66.6653 13.958 66.5006 13.958H65.3696V12.996H66.4616C66.6176 12.996 66.778 12.9873 66.9426 12.97C67.116 12.944 67.272 12.8963 67.4106 12.827C67.558 12.7577 67.6793 12.6623 67.7746 12.541C67.87 12.411 67.9176 12.242 67.9176 12.034C67.9176 11.8693 67.8743 11.7307 67.7876 11.618C67.7096 11.4967 67.6013 11.397 67.4626 11.319C67.324 11.241 67.1593 11.1847 66.9686 11.15C66.7866 11.1067 66.596 11.085 66.3966 11.085C66.2406 11.085 66.0716 11.098 65.8896 11.124C65.7076 11.15 65.53 11.1847 65.3566 11.228C65.1833 11.2627 65.0273 11.3017 64.8886 11.345C64.75 11.3883 64.6503 11.4273 64.5896 11.462L64.3686 10.422C64.438 10.396 64.5463 10.3613 64.6936 10.318C64.841 10.2747 65.0056 10.2357 65.1876 10.201C65.3783 10.1663 65.5776 10.136 65.7856 10.11C65.9936 10.084 66.1973 10.071 66.3966 10.071ZM73.329 16.129C73.615 16.129 73.8663 16.1247 74.083 16.116C74.3083 16.0987 74.4946 16.0727 74.642 16.038V14.023C74.5553 13.9797 74.4123 13.945 74.213 13.919C74.0223 13.8843 73.7883 13.867 73.511 13.867C73.329 13.867 73.134 13.88 72.926 13.906C72.7266 13.932 72.5403 13.9883 72.367 14.075C72.2023 14.153 72.0636 14.2657 71.951 14.413C71.8383 14.5517 71.782 14.738 71.782 14.972C71.782 15.4053 71.9206 15.7087 72.198 15.882C72.4753 16.0467 72.8523 16.129 73.329 16.129ZM73.225 10.071C73.7103 10.071 74.1176 10.136 74.447 10.266C74.785 10.3873 75.0536 10.565 75.253 10.799C75.461 11.0243 75.6083 11.2973 75.695 11.618C75.7816 11.93 75.825 12.2767 75.825 12.658V16.883C75.721 16.9003 75.5736 16.9263 75.383 16.961C75.201 16.987 74.993 17.013 74.759 17.039C74.525 17.065 74.2693 17.0867 73.992 17.104C73.7233 17.13 73.4546 17.143 73.186 17.143C72.8046 17.143 72.4536 17.104 72.133 17.026C71.8123 16.948 71.535 16.8267 71.301 16.662C71.067 16.4887 70.885 16.2633 70.755 15.986C70.625 15.7087 70.56 15.375 70.56 14.985C70.56 14.6123 70.6336 14.2917 70.781 14.023C70.937 13.7543 71.145 13.5377 71.405 13.373C71.665 13.2083 71.9683 13.087 72.315 13.009C72.6616 12.931 73.0256 12.892 73.407 12.892C73.5283 12.892 73.654 12.9007 73.784 12.918C73.914 12.9267 74.0353 12.944 74.148 12.97C74.2693 12.9873 74.3733 13.0047 74.46 13.022C74.5466 13.0393 74.6073 13.0523 74.642 13.061V12.723C74.642 12.5237 74.6203 12.3287 74.577 12.138C74.5336 11.9387 74.4556 11.7653 74.343 11.618C74.2303 11.462 74.0743 11.3407 73.875 11.254C73.6843 11.1587 73.433 11.111 73.121 11.111C72.7223 11.111 72.3713 11.1413 72.068 11.202C71.7733 11.254 71.5523 11.3103 71.405 11.371L71.262 10.37C71.418 10.3007 71.678 10.2357 72.042 10.175C72.406 10.1057 72.8003 10.071 73.225 10.071ZM81.2058 17V19.405H80.0098V15.921H80.9588C81.4008 15.4183 81.7388 14.8637 81.9728 14.257C82.2154 13.6417 82.3888 12.996 82.4928 12.32C82.6054 11.6353 82.6704 10.929 82.6878 10.201C82.7138 9.473 82.7311 8.73633 82.7398 7.991H87.8358V15.921H88.9668V19.405H87.7708V17H81.2058ZM83.9748 9.07C83.9488 9.642 83.9184 10.227 83.8838 10.825C83.8578 11.4143 83.7928 12.0037 83.6888 12.593C83.5934 13.1737 83.4504 13.7457 83.2598 14.309C83.0691 14.8723 82.8004 15.4097 82.4538 15.921H86.5748V9.07H83.9748ZM89.8241 18.261C89.9195 18.3043 90.0408 18.3433 90.1881 18.378C90.3441 18.4213 90.4958 18.443 90.6431 18.443C91.1198 18.443 91.4925 18.3347 91.7611 18.118C92.0298 17.91 92.2725 17.5677 92.4891 17.091C91.9431 16.051 91.4318 14.9503 90.9551 13.789C90.4871 12.619 90.0971 11.436 89.7851 10.24H91.0851C91.1805 10.63 91.2931 11.0503 91.4231 11.501C91.5618 11.9517 91.7135 12.4153 91.8781 12.892C92.0428 13.3687 92.2205 13.8453 92.4111 14.322C92.6018 14.7987 92.8011 15.258 93.0091 15.7C93.3385 14.79 93.6245 13.8887 93.8671 12.996C94.1098 12.1033 94.3395 11.1847 94.5561 10.24H95.8041C95.4921 11.514 95.1455 12.7403 94.7641 13.919C94.3828 15.089 93.9711 16.1853 93.5291 17.208C93.3558 17.598 93.1738 17.9317 92.9831 18.209C92.8011 18.495 92.5975 18.729 92.3721 18.911C92.1468 19.093 91.8911 19.2273 91.6051 19.314C91.3278 19.4007 91.0115 19.444 90.6561 19.444C90.5608 19.444 90.4611 19.4353 90.3571 19.418C90.2531 19.4093 90.1491 19.392 90.0451 19.366C89.9498 19.3487 89.8588 19.327 89.7721 19.301C89.6941 19.275 89.6378 19.2533 89.6031 19.236L89.8241 18.261ZM102.76 10.24V17H101.59V11.852C101.33 12.1813 101.044 12.567 100.732 13.009C100.42 13.451 100.108 13.9103 99.7961 14.387C99.4841 14.855 99.1851 15.3187 98.8991 15.778C98.6131 16.2373 98.3661 16.6447 98.1581 17H97.0791V10.24H98.2491V15.102C98.4744 14.7293 98.7301 14.322 99.0161 13.88C99.3021 13.4293 99.5967 12.9873 99.9001 12.554C100.212 12.112 100.52 11.6917 100.823 11.293C101.135 10.8857 101.425 10.5347 101.694 10.24H102.76ZM99.9261 9.148C99.3801 9.148 98.9337 9.00933 98.5871 8.732C98.2491 8.45467 98.0454 8.069 97.9761 7.575L98.8991 7.328C98.9684 7.60533 99.0854 7.83067 99.2501 8.004C99.4147 8.17733 99.6401 8.264 99.9261 8.264C100.212 8.264 100.437 8.17733 100.602 8.004C100.767 7.83067 100.884 7.60533 100.953 7.328L101.863 7.575C101.794 8.069 101.59 8.45467 101.252 8.732C100.914 9.00933 100.472 9.148 99.9261 9.148ZM107.774 17.156C107.228 17.156 106.747 17.0693 106.331 16.896C105.924 16.7227 105.577 16.48 105.291 16.168C105.014 15.856 104.806 15.4877 104.667 15.063C104.528 14.6297 104.459 14.153 104.459 13.633C104.459 13.113 104.533 12.6363 104.68 12.203C104.836 11.7697 105.053 11.397 105.33 11.085C105.607 10.7643 105.945 10.5173 106.344 10.344C106.751 10.162 107.202 10.071 107.696 10.071C107.999 10.071 108.303 10.097 108.606 10.149C108.909 10.201 109.2 10.2833 109.477 10.396L109.204 11.423C109.022 11.3363 108.81 11.267 108.567 11.215C108.333 11.163 108.082 11.137 107.813 11.137C107.137 11.137 106.617 11.3493 106.253 11.774C105.898 12.1987 105.72 12.8183 105.72 13.633C105.72 13.997 105.759 14.3307 105.837 14.634C105.924 14.9373 106.054 15.1973 106.227 15.414C106.409 15.6307 106.639 15.7997 106.916 15.921C107.193 16.0337 107.531 16.09 107.93 16.09C108.251 16.09 108.541 16.0597 108.801 15.999C109.061 15.9383 109.265 15.8733 109.412 15.804L109.581 16.818C109.512 16.8613 109.412 16.9047 109.282 16.948C109.152 16.9827 109.005 17.013 108.84 17.039C108.675 17.0737 108.498 17.0997 108.307 17.117C108.125 17.143 107.947 17.156 107.774 17.156ZM110.502 13.633C110.502 13.035 110.589 12.515 110.762 12.073C110.935 11.6223 111.165 11.2497 111.451 10.955C111.737 10.6603 112.066 10.4393 112.439 10.292C112.812 10.1447 113.193 10.071 113.583 10.071C114.493 10.071 115.191 10.357 115.676 10.929C116.161 11.4923 116.404 12.3547 116.404 13.516C116.404 13.568 116.404 13.6373 116.404 13.724C116.404 13.802 116.4 13.8757 116.391 13.945H111.763C111.815 14.647 112.019 15.18 112.374 15.544C112.729 15.908 113.284 16.09 114.038 16.09C114.463 16.09 114.818 16.0553 115.104 15.986C115.399 15.908 115.62 15.8343 115.767 15.765L115.936 16.779C115.789 16.857 115.529 16.9393 115.156 17.026C114.792 17.1127 114.376 17.156 113.908 17.156C113.319 17.156 112.807 17.0693 112.374 16.896C111.949 16.714 111.598 16.467 111.321 16.155C111.044 15.843 110.836 15.4747 110.697 15.05C110.567 14.6167 110.502 14.1443 110.502 13.633ZM115.143 12.97C115.152 12.424 115.013 11.9777 114.727 11.631C114.45 11.2757 114.064 11.098 113.57 11.098C113.293 11.098 113.046 11.1543 112.829 11.267C112.621 11.371 112.443 11.5097 112.296 11.683C112.149 11.8563 112.032 12.0557 111.945 12.281C111.867 12.5063 111.815 12.736 111.789 12.97H115.143ZM119.233 11.02C119.501 10.8033 119.813 10.6387 120.169 10.526C120.533 10.4047 120.879 10.344 121.209 10.344C122.179 10.344 122.912 10.643 123.406 11.241C123.908 11.8303 124.16 12.6537 124.16 13.711C124.16 14.1617 124.099 14.595 123.978 15.011C123.856 15.427 123.666 15.7953 123.406 16.116C123.154 16.4367 122.834 16.6923 122.444 16.883C122.054 17.0737 121.59 17.169 121.053 17.169C120.437 17.169 119.926 17.0563 119.519 16.831C119.111 16.6057 118.786 16.298 118.544 15.908C118.31 15.518 118.145 15.063 118.05 14.543C117.954 14.023 117.907 13.4727 117.907 12.892C117.907 12.138 117.959 11.436 118.063 10.786C118.175 10.136 118.375 9.564 118.661 9.07C118.947 8.576 119.341 8.16867 119.844 7.848C120.355 7.51867 121.009 7.29767 121.807 7.185C122.041 7.15033 122.244 7.12433 122.418 7.107C122.6 7.081 122.756 7.05933 122.886 7.042C123.024 7.02467 123.15 7.00733 123.263 6.99C123.375 6.964 123.492 6.938 123.614 6.912L123.744 8.004C123.683 8.02133 123.618 8.03433 123.549 8.043C123.488 8.05167 123.397 8.06467 123.276 8.082C123.163 8.09933 123.007 8.121 122.808 8.147C122.617 8.173 122.366 8.20333 122.054 8.238C121.196 8.33333 120.537 8.59333 120.078 9.018C119.618 9.44267 119.337 10.11 119.233 11.02ZM119.155 13.087C119.155 13.4943 119.181 13.88 119.233 14.244C119.293 14.608 119.393 14.9287 119.532 15.206C119.679 15.4833 119.874 15.7043 120.117 15.869C120.359 16.025 120.671 16.103 121.053 16.103C121.382 16.103 121.664 16.0423 121.898 15.921C122.132 15.791 122.322 15.6177 122.47 15.401C122.617 15.1843 122.725 14.933 122.795 14.647C122.864 14.3523 122.899 14.0403 122.899 13.711C122.899 13.4163 122.868 13.1303 122.808 12.853C122.756 12.5757 122.656 12.3287 122.509 12.112C122.361 11.8953 122.162 11.722 121.911 11.592C121.668 11.462 121.36 11.397 120.988 11.397C120.624 11.397 120.273 11.475 119.935 11.631C119.605 11.787 119.35 11.9777 119.168 12.203C119.159 12.2983 119.155 12.4327 119.155 12.606C119.155 12.7793 119.155 12.9397 119.155 13.087ZM125.495 13.633C125.495 13.035 125.582 12.515 125.755 12.073C125.928 11.6223 126.158 11.2497 126.444 10.955C126.73 10.6603 127.059 10.4393 127.432 10.292C127.805 10.1447 128.186 10.071 128.576 10.071C129.486 10.071 130.184 10.357 130.669 10.929C131.154 11.4923 131.397 12.3547 131.397 13.516C131.397 13.568 131.397 13.6373 131.397 13.724C131.397 13.802 131.393 13.8757 131.384 13.945H126.756C126.808 14.647 127.012 15.18 127.367 15.544C127.722 15.908 128.277 16.09 129.031 16.09C129.456 16.09 129.811 16.0553 130.097 15.986C130.392 15.908 130.613 15.8343 130.76 15.765L130.929 16.779C130.782 16.857 130.522 16.9393 130.149 17.026C129.785 17.1127 129.369 17.156 128.901 17.156C128.312 17.156 127.8 17.0693 127.367 16.896C126.942 16.714 126.591 16.467 126.314 16.155C126.037 15.843 125.829 15.4747 125.69 15.05C125.56 14.6167 125.495 14.1443 125.495 13.633ZM130.136 12.97C130.145 12.424 130.006 11.9777 129.72 11.631C129.443 11.2757 129.057 11.098 128.563 11.098C128.286 11.098 128.039 11.1543 127.822 11.267C127.614 11.371 127.436 11.5097 127.289 11.683C127.142 11.8563 127.025 12.0557 126.938 12.281C126.86 12.5063 126.808 12.736 126.782 12.97H130.136ZM135.604 13.321C135.872 13.5117 136.163 13.7543 136.475 14.049C136.787 14.335 137.09 14.647 137.385 14.985C137.688 15.323 137.97 15.6697 138.23 16.025C138.49 16.3717 138.711 16.6967 138.893 17H137.463C137.272 16.7053 137.047 16.4063 136.787 16.103C136.535 15.791 136.271 15.492 135.994 15.206C135.716 14.92 135.435 14.6557 135.149 14.413C134.863 14.1703 134.594 13.9667 134.343 13.802V17H133.134V10.24H134.343V13.139C134.551 12.9397 134.789 12.71 135.058 12.45C135.326 12.1813 135.595 11.9127 135.864 11.644C136.141 11.3667 136.397 11.1067 136.631 10.864C136.865 10.6127 137.055 10.4047 137.203 10.24H138.607C138.416 10.448 138.191 10.6863 137.931 10.955C137.679 11.215 137.415 11.4837 137.138 11.761C136.869 12.0383 136.6 12.3157 136.332 12.593C136.063 12.8617 135.82 13.1043 135.604 13.321ZM145.702 13.62C145.702 14.1573 145.624 14.6427 145.468 15.076C145.312 15.5093 145.091 15.882 144.805 16.194C144.528 16.506 144.194 16.7487 143.804 16.922C143.414 17.0867 142.99 17.169 142.53 17.169C142.071 17.169 141.646 17.0867 141.256 16.922C140.866 16.7487 140.528 16.506 140.242 16.194C139.965 15.882 139.748 15.5093 139.592 15.076C139.436 14.6427 139.358 14.1573 139.358 13.62C139.358 13.0913 139.436 12.6103 139.592 12.177C139.748 11.735 139.965 11.358 140.242 11.046C140.528 10.734 140.866 10.4957 141.256 10.331C141.646 10.1577 142.071 10.071 142.53 10.071C142.99 10.071 143.414 10.1577 143.804 10.331C144.194 10.4957 144.528 10.734 144.805 11.046C145.091 11.358 145.312 11.735 145.468 12.177C145.624 12.6103 145.702 13.0913 145.702 13.62ZM144.441 13.62C144.441 12.8573 144.268 12.255 143.921 11.813C143.583 11.3623 143.12 11.137 142.53 11.137C141.941 11.137 141.473 11.3623 141.126 11.813C140.788 12.255 140.619 12.8573 140.619 13.62C140.619 14.3827 140.788 14.9893 141.126 15.44C141.473 15.882 141.941 16.103 142.53 16.103C143.12 16.103 143.583 15.882 143.921 15.44C144.268 14.9893 144.441 14.3827 144.441 13.62ZM148.586 16.09C148.638 16.0987 148.712 16.1073 148.807 16.116C148.903 16.1247 149.011 16.1333 149.132 16.142C149.254 16.142 149.379 16.1463 149.509 16.155C149.648 16.155 149.778 16.155 149.899 16.155C150.151 16.155 150.389 16.1377 150.614 16.103C150.848 16.0683 151.048 16.0077 151.212 15.921C151.386 15.8343 151.52 15.7217 151.615 15.583C151.719 15.4357 151.771 15.2493 151.771 15.024C151.771 14.8073 151.724 14.6297 151.628 14.491C151.542 14.3437 151.42 14.2267 151.264 14.14C151.108 14.0533 150.922 13.9927 150.705 13.958C150.497 13.9233 150.272 13.906 150.029 13.906H148.586V16.09ZM149.873 13.009C150.107 13.009 150.32 12.996 150.51 12.97C150.71 12.9353 150.879 12.879 151.017 12.801C151.165 12.723 151.277 12.619 151.355 12.489C151.442 12.359 151.485 12.1943 151.485 11.995C151.485 11.787 151.433 11.6223 151.329 11.501C151.225 11.3797 151.087 11.2887 150.913 11.228C150.749 11.1587 150.558 11.1153 150.341 11.098C150.133 11.072 149.921 11.059 149.704 11.059C149.505 11.059 149.301 11.0633 149.093 11.072C148.894 11.0807 148.725 11.0893 148.586 11.098V13.009H149.873ZM149.847 17.117C149.336 17.117 148.864 17.091 148.43 17.039C147.997 16.9957 147.655 16.9437 147.403 16.883V10.305C147.655 10.2443 147.997 10.1923 148.43 10.149C148.864 10.097 149.336 10.071 149.847 10.071C150.203 10.071 150.549 10.1013 150.887 10.162C151.225 10.2227 151.524 10.3267 151.784 10.474C152.044 10.6127 152.252 10.8077 152.408 11.059C152.573 11.3017 152.655 11.605 152.655 11.969C152.655 12.2983 152.573 12.58 152.408 12.814C152.244 13.048 152.023 13.23 151.745 13.36C152.118 13.49 152.413 13.685 152.629 13.945C152.855 14.1963 152.967 14.5517 152.967 15.011C152.967 15.4183 152.885 15.7563 152.72 16.025C152.564 16.2937 152.343 16.5103 152.057 16.675C151.78 16.8397 151.451 16.9523 151.069 17.013C150.688 17.0823 150.281 17.117 149.847 17.117Z" fill="#5E6A86"/>
</svg>
