<svg width="14" height="9" viewBox="0 0 14 9" fill="none" xmlns="http://www.w3.org/2000/svg">
<path id="Vector" d="M1.83734 0.273439H0.478556C0.360782 0.273439 0.295743 0.408792 0.367814 0.500198L6.55707 8.42442C6.60943 8.49175 6.67647 8.54623 6.75309 8.5837C6.82971 8.62117 6.91387 8.64066 6.99916 8.64066C7.08445 8.64066 7.16861 8.62117 7.24523 8.5837C7.32185 8.54623 7.38889 8.49175 7.44125 8.42442L13.6305 0.500198C13.7026 0.407034 13.6375 0.273439 13.5198 0.273439H12.161C12.0748 0.273439 11.9922 0.313869 11.9395 0.380666L7.00004 6.70879L2.05883 0.380666C2.00609 0.313869 1.92348 0.273439 1.83734 0.273439Z" fill="black"/>
</svg>
