<svg width="14" height="4" viewBox="0 0 14 4" fill="none" xmlns="http://www.w3.org/2000/svg">
<path d="M3.834 2.312C3.834 2.732 3.69 3.074 3.402 3.338C3.126 3.602 2.79 3.734 2.394 3.734C1.986 3.734 1.644 3.602 1.368 3.338C1.092 3.074 0.954 2.732 0.954 2.312C0.954 1.892 1.092 1.55 1.368 1.286C1.644 1.01 1.986 0.872 2.394 0.872C2.79 0.872 3.126 1.01 3.402 1.286C3.69 1.55 3.834 1.892 3.834 2.312ZM8.61525 2.312C8.61525 2.732 8.47125 3.074 8.18325 3.338C7.90725 3.602 7.57125 3.734 7.17525 3.734C6.76725 3.734 6.42525 3.602 6.14925 3.338C5.87325 3.074 5.73525 2.732 5.73525 2.312C5.73525 1.892 5.87325 1.55 6.14925 1.286C6.42525 1.01 6.76725 0.872 7.17525 0.872C7.57125 0.872 7.90725 1.01 8.18325 1.286C8.47125 1.55 8.61525 1.892 8.61525 2.312ZM13.3965 2.312C13.3965 2.732 13.2525 3.074 12.9645 3.338C12.6885 3.602 12.3525 3.734 11.9565 3.734C11.5485 3.734 11.2065 3.602 10.9305 3.338C10.6545 3.074 10.5165 2.732 10.5165 2.312C10.5165 1.892 10.6545 1.55 10.9305 1.286C11.2065 1.01 11.5485 0.872 11.9565 0.872C12.3525 0.872 12.6885 1.01 12.9645 1.286C13.2525 1.55 13.3965 1.892 13.3965 2.312Z" fill="#837878"/>
</svg>
